<svg width="85" height="74" viewBox="0 0 85 74" fill="none" xmlns="http://www.w3.org/2000/svg">
<path d="M42.2949 73.1371C29.978 73.1371 17.6611 73.1371 5.34413 73.1371C4.74246 73.1371 4.13301 73.1371 3.52875 73.0757C0.445193 72.7915 -0.794454 70.7406 0.520402 67.9678C1.6615 65.5738 2.90633 63.2413 4.11486 60.873C9.82034 49.7217 15.5258 38.5722 21.2313 27.4244C21.4077 27.0838 21.5918 26.7433 21.7967 26.4182C23.2334 24.1445 25.5675 23.8245 27.4062 25.7857C28.7029 27.1581 29.7999 28.6994 30.9566 30.187C36.835 37.7708 42.7133 45.358 48.5917 52.9487C51.1592 56.2515 54.3932 56.4308 57.4093 53.4607C58.9057 51.986 60.3684 50.4728 61.8829 49.0108C64.6138 46.3736 67.7129 46.5324 69.9432 49.6074C74.4194 55.7779 78.7841 62.0303 83.1696 68.2622C83.5123 68.7511 83.7748 69.2903 83.9476 69.8599C84.3729 71.2911 83.7712 72.4433 82.3008 72.8248C81.3787 73.0427 80.4322 73.1434 79.4843 73.1243C67.0948 73.1448 54.6983 73.1491 42.2949 73.1371Z" fill="white"/>
<path d="M69.9172 12.0341C69.9141 14.4142 69.1952 16.7398 67.8516 18.7161C66.508 20.6924 64.6003 22.2303 62.3704 23.1349C60.1404 24.0395 57.6886 24.27 55.3258 23.7972C52.963 23.3245 50.7955 22.1697 49.0983 20.4793C47.401 18.7889 46.2504 16.6391 45.7922 14.3023C45.3341 11.9655 45.589 9.54704 46.5248 7.3535C47.4606 5.15995 49.035 3.29011 51.0484 1.98103C53.0619 0.671954 55.4238 -0.017411 57.8346 0.000334164C61.0448 0.0406095 64.1105 1.32467 66.3706 3.57571C68.6308 5.82675 69.9046 8.86448 69.9172 12.0341Z" fill="white"/>
</svg>
