<svg preserveAspectRatio="none" width="100%" height="100%" overflow="visible" style="display: block;" viewBox="0 0 53 50" fill="none" xmlns="http://www.w3.org/2000/svg">
<g id="Agriculture">
<path id="Vector" d="M27.8249 31.0772C27.8249 30.0694 27.7549 29.226 27.8459 28.3967C27.9159 27.7598 28.0524 27.0529 28.4058 26.542C29.5221 24.9148 30.7574 23.368 31.9367 21.7828C32.9165 20.467 34.2148 19.6761 35.8526 19.6621C39.8664 19.6306 43.8802 19.6027 47.8905 19.7111C50.3576 19.7776 52.2893 21.7443 52.3313 24.2184C52.4118 28.8376 52.3978 33.4603 52.3313 38.0831C52.2998 40.2317 50.3751 42.2229 48.1565 42.4223C46.4243 42.5798 44.6711 42.5273 42.9284 42.5133C42.358 42.5063 42.1165 42.7163 41.9485 43.2342C40.8147 46.7126 36.9619 49.2112 33.305 49.0187C29.2177 48.8018 26.5861 46.7091 25.0569 43.0207C24.9659 42.8003 24.5984 42.5588 24.3535 42.5518C22.3168 42.5133 20.2802 42.5063 18.247 42.5483C17.9916 42.5518 17.6066 42.8318 17.5086 43.0732C16.2873 46.0582 14.2157 48.0494 11.0312 48.8227C6.61497 49.8936 1.92225 47.276 0.504985 42.9437C-0.383865 40.2352 -0.114402 37.6491 1.43234 35.2695C3.23804 32.491 5.86958 31.0352 9.18703 31.1052C12.543 31.1752 15.1465 32.7324 16.7913 35.6755C17.3862 36.7393 17.7081 37.9606 18.191 39.2064H24.3255C25.0114 37.5336 25.6483 35.9764 26.3202 34.3352C24.9169 34.3352 23.4191 34.2827 21.9284 34.3527C20.7526 34.4087 20.0282 33.9852 19.5488 32.8934C18.8944 31.4062 18.093 29.9854 17.4037 28.5157C17.1587 27.9942 16.8542 27.8088 16.2733 27.8123C11.6191 27.8368 6.96491 27.8298 2.31069 27.8123C1.85577 27.8123 1.34835 27.7913 0.952921 27.5953C0.288032 27.2699 -0.128412 26.6855 0.0640561 25.8841C0.242526 25.1457 0.714956 24.6453 1.49533 24.5648C2.04123 24.5088 2.59413 24.5543 3.25552 24.5543C3.27302 24.2184 3.29753 23.9419 3.29753 23.6655C3.30103 19.3647 3.28002 15.0604 3.32201 10.7596C3.32901 9.95827 3.05956 9.7868 2.32118 9.8008C0.508486 9.83579 0.01858 9.30038 0.0150806 7.46319C0.0150806 6.26989 0.00808174 5.08009 0.0150806 3.88679C0.0290782 1.83263 1.37984 0.317386 3.43399 0.0689281C3.92391 0.00943809 4.41734 -0.00106015 4.91076 -0.00106015C10.5518 -0.00106015 16.1964 -0.00106015 21.8374 0.00243926C24.7104 0.00243926 26.1872 1.48269 26.1907 4.35221C26.1907 5.54551 26.2012 6.73531 26.1907 7.92861C26.1802 9.02393 25.7777 9.45785 24.7384 9.7868C24.4305 9.88478 24.0805 10.2522 23.993 10.5637C22.6003 15.5398 21.239 20.523 19.9022 25.5132C19.8147 25.8386 19.9022 26.269 20.0457 26.584C20.6721 27.9243 21.3405 29.247 22.0299 30.5593C22.1454 30.7763 22.4323 31.0457 22.6458 31.0492C24.3255 31.0912 26.0087 31.0702 27.8284 31.0702L27.8249 31.0772ZM31.1389 31.2732C31.3103 31.2942 31.4013 31.3292 31.4783 31.3117C36.6854 30.1499 41.7316 33.6388 42.4699 38.7304C42.4979 38.9334 42.9179 39.2169 43.1628 39.2274C44.4401 39.2763 45.7209 39.2519 46.9982 39.2449C48.5134 39.2344 49.0838 38.6535 49.0838 37.1172C49.0838 33.1349 49.0838 29.156 49.0838 25.1737C49.0838 23.4065 48.5869 22.9096 46.7952 22.9096C43.3938 22.9061 39.9924 22.9341 36.5909 22.8921C35.6146 22.8781 34.9217 23.242 34.3688 23.9909C33.5884 25.0407 32.9025 26.178 32.0032 27.1159C30.7889 28.3827 31.1424 29.8244 31.1389 31.2732ZM16.7563 24.5158C18.0825 19.6551 19.3983 14.826 20.7246 9.95477H6.63246V24.5158H16.7563ZM39.261 40.2632C39.359 37.0752 36.7974 34.4052 33.5849 34.3387C30.516 34.2757 27.9544 36.7708 27.8564 39.9237C27.7549 43.1327 30.2815 45.7223 33.5639 45.7783C36.5944 45.8273 39.1665 43.3392 39.261 40.2632ZM14.7126 40.0952C14.7931 37.0437 12.2595 34.4192 9.14854 34.3352C6.05856 34.2512 3.3955 36.7918 3.30101 39.9202C3.20653 43.0907 5.71562 45.7468 8.91408 45.7748C11.9726 45.7993 14.6671 43.4931 14.7126 40.0987V40.0952ZM22.9012 6.46236C22.9012 5.73798 22.9012 5.16057 22.9012 4.58667C22.9012 3.37937 22.8067 3.28139 21.6274 3.28139C16.0249 3.27789 10.4188 3.27439 4.81626 3.27789C4.49782 3.27789 4.15837 3.25339 3.87142 3.35488C3.65096 3.43536 3.35002 3.69082 3.33602 3.88329C3.27653 4.74064 3.31152 5.605 3.31152 6.46236H22.9047H22.9012Z" fill="var(--fill-0, #2A2D2F)"/>
<path id="Vector_2" d="M33.557 37.6442C34.8553 37.6268 35.9821 38.7676 35.9856 40.1043C35.9891 41.3046 34.8798 42.4629 33.6795 42.5014C32.3147 42.5469 31.1354 41.4306 31.1249 40.0903C31.1179 38.7536 32.1992 37.6652 33.557 37.6477V37.6442Z" fill="var(--fill-0, #2A2D2F)"/>
<path id="Vector_3" d="M8.98758 42.4768C7.6928 42.4873 6.61149 41.4374 6.5765 40.1357C6.54151 38.7989 7.67531 37.6511 9.04008 37.6441C10.2789 37.6371 11.4302 38.7639 11.4477 40.0062C11.4687 41.3745 10.3803 42.4663 8.98758 42.4803V42.4768Z" fill="var(--fill-0, #2A2D2F)"/>
</g>
</svg>
