<svg preserveAspectRatio="none" width="100%" height="100%" overflow="visible" style="display: block;" viewBox="0 0 45 45" fill="none" xmlns="http://www.w3.org/2000/svg">
<g id="Construction &#38; Infrastructure">
<path id="Vector" d="M11.2732 12.5648C10.6539 12.5648 10.1338 12.5618 9.61377 12.5648C6.96527 12.5828 4.31977 12.6099 1.67127 12.6219C0.970815 12.6249 0.360548 12.3754 0.102011 11.69C-0.162539 10.9865 0.108023 10.3973 0.676203 9.90428C4.1875 6.85895 7.7048 3.82565 11.162 0.723211C12.0488 -0.0734436 12.7974 -0.181668 13.9007 0.257243C21.8101 3.38374 29.7466 6.44409 37.674 9.5285C38.0649 9.68182 38.5338 9.769 38.8134 10.0456C39.102 10.3282 39.3485 10.8001 39.3575 11.194C39.4056 13.9146 39.3936 16.6383 39.3786 19.3619C39.3726 20.3961 38.8615 20.9462 37.9867 20.9522C37.0908 20.9582 36.5918 20.381 36.5858 19.3048C36.5798 17.2816 36.5738 15.2584 36.5918 13.2352C36.5948 12.7843 36.5136 12.5528 35.9845 12.5528C30.7146 12.5678 25.4416 12.5618 20.1717 12.5648C20.0514 12.5648 19.9312 12.5949 19.7298 12.6249C19.7178 12.9256 19.6937 13.2142 19.6937 13.5028C19.6937 19.0974 19.6937 24.692 19.6937 30.2866C19.6937 30.485 19.7027 30.6864 19.6847 30.8849C19.6155 31.6575 19.0564 32.1926 18.3198 32.2016C17.5803 32.2106 16.9971 31.7026 16.928 30.9179C16.8769 30.3227 16.8919 29.7214 16.8919 29.1202C16.8919 23.9494 16.8919 18.7787 16.8919 13.608C16.8919 13.3134 16.8919 13.0218 16.8919 12.679H14.0931C14.0931 12.9646 14.0931 13.2502 14.0931 13.5388C14.0931 19.1575 14.0931 24.7792 14.0991 30.3978C14.0991 31.1554 13.9337 31.8138 13.1762 32.1174C12.1811 32.5142 11.2792 31.7867 11.2762 30.5963C11.2672 26.5739 11.2702 22.5546 11.2702 18.5322C11.2702 16.5872 11.2702 14.6391 11.2702 12.5588L11.2732 12.5648ZM14.1532 3.41079V9.69384H29.8879C29.8999 9.64274 29.9119 9.59163 29.9209 9.54052C24.6841 7.5053 19.4502 5.47007 14.1502 3.41079H14.1532ZM11.2401 4.472C9.20792 6.25169 7.32 7.90813 5.26974 9.70286H11.2401V4.472Z" fill="var(--fill-0, #2A2D2F)"/>
<path id="Vector_2" d="M22.5224 44.8856C16.1281 44.8856 9.73386 44.8466 3.34259 44.9097C1.4216 44.9277 -0.156676 43.6471 0.0146796 41.5908C0.107873 40.4755 0.032717 39.3451 0.032717 38.2208C0.032717 36.2006 1.13 35.0642 3.16222 35.0492C5.93397 35.0282 8.70573 35.0462 11.4775 35.0462C16.2724 35.0462 21.0674 35.0312 25.8624 35.0582C26.5658 35.0612 26.7552 34.8418 26.7402 34.1624C26.6981 32.3917 26.7252 30.618 26.7252 28.8443C26.7252 28.6459 26.7161 28.4445 26.7312 28.2461C26.8063 27.23 27.3294 26.6407 28.1471 26.6468C28.9618 26.6528 29.5149 27.242 29.533 28.2701C29.5661 30.2422 29.5751 32.2173 29.53 34.1864C29.5119 34.8989 29.7554 35.0733 30.4288 35.0642C32.3558 35.0342 32.3589 35.0612 32.3589 33.1312C32.3589 31.6341 32.3528 30.134 32.3589 28.6369C32.3589 28.3393 32.3709 28.0356 32.428 27.744C32.5573 27.0797 33.0954 26.6468 33.7507 26.6407C34.4392 26.6347 35.0194 27.0827 35.0915 27.7982C35.1697 28.5888 35.1577 29.3915 35.1637 30.1911C35.1727 31.565 35.1817 32.9388 35.1547 34.3097C35.1426 34.8418 35.2869 35.0552 35.8671 35.0612C37.9745 35.0823 37.9715 35.1033 37.9715 33.017C37.9715 31.5439 37.9655 30.0709 37.9835 28.5978C37.9865 28.228 38.0136 27.8372 38.1338 27.4945C38.3353 26.9143 38.8163 26.6377 39.4175 26.6498C40.0188 26.6648 40.4847 26.9564 40.6591 27.5516C40.7613 27.9034 40.7914 28.2882 40.7914 28.6609C40.8034 30.5098 40.8214 32.3556 40.7823 34.2045C40.7673 34.8538 40.9507 35.0973 41.6241 35.0582C42.4779 35.0071 43.3226 35.0913 43.999 35.7376C44.6213 36.3329 45.0181 37.0123 45.0091 37.9021C44.9941 39.2249 45.0091 40.5476 45.0031 41.8734C44.9971 43.6711 43.8126 44.8736 42.0029 44.8826C38.9816 44.8947 35.9603 44.8856 32.9361 44.8856C29.4638 44.8856 25.9916 44.8856 22.5224 44.8856ZM42.1442 42.0357V37.9292H2.90368V42.0357H42.1412H42.1442Z" fill="var(--fill-0, #2A2D2F)"/>
</g>
</svg>
