<svg preserveAspectRatio="none" width="100%" height="100%" overflow="visible" style="display: block;" viewBox="0 0 52 53" fill="none" xmlns="http://www.w3.org/2000/svg">
<g id="Forestry">
<path id="Vector" d="M7.28848 23.6427C6.66558 23.2472 6.05669 23.0268 5.69275 22.5964C5.19583 22.005 5.3428 21.2771 5.76623 20.6437C7.46695 18.0961 9.13267 15.5275 10.8824 13.015C12.2926 10.9923 14.9102 11.0133 16.3205 13.05C18.0142 15.496 19.6484 17.9806 21.2826 20.4652C22.224 21.8965 21.797 22.9183 20.1173 23.3697C20.0403 23.3907 19.9703 23.4502 19.8164 23.5377C20.6807 25.0634 21.5381 26.5752 22.3989 28.0834C23.0778 29.2732 23.7532 30.463 24.4391 31.6493C25.5239 33.5285 25.181 34.4034 23.0638 34.9738C24.2221 37.0069 25.3699 39.0261 26.5213 41.0453C27.0742 42.0111 27.4206 42.9979 26.9762 44.1247C26.3848 45.6225 25.3629 46.3224 23.5712 46.3364C21.1497 46.3539 18.7281 46.3364 16.3065 46.3434C15.9635 46.3434 15.6241 46.3784 15.2111 46.3994C15.2111 47.8481 15.2146 49.2164 15.2111 50.5812C15.2041 51.785 14.5708 52.5583 13.5979 52.5688C12.6321 52.5758 11.9392 51.785 11.9252 50.6127C11.9077 49.2199 11.9217 47.8306 11.9217 46.3364C11.4143 46.3364 11.0154 46.3364 10.6129 46.3364C8.07585 46.3224 5.53527 46.3854 3.0017 46.2734C0.730581 46.1719 -0.669182 43.8238 0.324651 41.7731C1.2275 39.9149 2.32981 38.1547 3.34114 36.3525C3.5931 35.9011 3.84506 35.4532 4.12501 34.9528C3.77157 34.8793 3.50912 34.8548 3.26766 34.7708C2.16884 34.3964 1.8259 33.2696 2.47679 32.1218C3.95704 29.5112 5.45478 26.9111 6.94553 24.3041C7.08551 24.0591 7.20799 23.8002 7.28848 23.6497V23.6427ZM16.9854 19.9298C15.848 18.2221 14.7457 16.5739 13.5839 14.8277C12.3836 16.6404 11.2918 18.2921 10.1685 19.9858C11.9392 20.5492 12.3101 21.501 11.4843 22.9673C10.8124 24.1606 10.123 25.3434 9.44412 26.5332C8.50978 28.1709 7.57893 29.8121 6.63059 31.4744C8.66025 31.8768 9.10817 32.8531 8.11434 34.5993C6.71807 37.0559 5.30781 39.5055 3.90805 41.9621C3.73308 42.2701 3.5896 42.599 3.39714 42.9909H23.8372C23.1758 41.8221 22.5844 40.7653 21.9825 39.7155C20.9432 37.8958 19.8794 36.0866 18.8645 34.2529C18.0982 32.8671 18.6686 31.7893 20.2398 31.5514C20.3098 31.5409 20.3763 31.4849 20.4848 31.4324C20.3553 31.1734 20.2538 30.9355 20.1278 30.715C18.6861 28.1849 17.2443 25.6548 15.7991 23.1283C14.8402 21.452 15.0957 20.6857 16.9854 19.9333V19.9298Z" fill="var(--fill-0, #2A2D2F)"/>
<path id="Vector_2" d="M38.1777 29.9343C37.0509 29.9343 36.0396 29.9448 35.0282 29.9343C33.716 29.9203 32.3967 29.9763 31.0984 29.8433C28.9358 29.6228 27.7635 27.4812 28.6803 25.5075C29.3557 24.0552 30.1046 22.6345 30.8149 21.1997C30.9654 20.8918 31.1054 20.5803 31.2734 20.2164C31.0774 20.1359 30.9549 20.0729 30.8254 20.0344C29.5447 19.653 29.0967 18.6242 29.7686 17.4624C30.9094 15.4957 32.0922 13.5535 33.254 11.6008C33.4885 11.2054 33.7125 10.803 33.9714 10.355C33.7614 10.2536 33.6145 10.1836 33.464 10.1101C32.3722 9.56768 32.0432 8.57035 32.7641 7.57651C34.3528 5.37888 35.9626 3.19525 37.6563 1.07811C38.7866 -0.335657 40.9702 -0.37415 42.118 1.03961C43.8608 3.18825 45.502 5.42788 47.1152 7.678C47.8536 8.70683 47.3812 9.63767 45.8134 10.3515C46.4503 11.4224 47.0767 12.4862 47.7101 13.5465C48.382 14.6733 49.0469 15.8036 49.7258 16.9269C50.8036 18.7011 50.5061 19.541 48.4625 20.2094C49.2394 21.8051 50.0022 23.3974 50.7861 24.9756C51.3005 26.0114 51.5525 27.0437 51.0101 28.1531C50.3662 29.4688 49.2568 29.9378 47.8641 29.9343C45.9989 29.9273 44.1302 29.9553 42.265 29.9308C41.6596 29.9238 41.4532 30.1162 41.4671 30.7321C41.5021 32.5413 41.4846 34.3505 41.4776 36.1597C41.4741 37.374 40.8443 38.1159 39.8399 38.1089C38.8636 38.1019 38.2022 37.332 38.1917 36.1352C38.1742 34.4135 38.1847 32.6918 38.1847 30.9701C38.1847 30.6586 38.1847 30.3472 38.1847 29.9413L38.1777 29.9343ZM47.8711 26.5818C47.6961 26.1969 47.5701 25.9134 47.4371 25.637C46.4328 23.5653 45.418 21.5007 44.4207 19.429C43.8293 18.2042 44.1442 17.4064 45.4145 16.843C45.509 16.801 45.586 16.71 45.7084 16.612C44.4207 14.4564 43.1609 12.3287 41.8871 10.2081C40.9072 8.58085 40.9667 8.11193 42.426 6.81714C41.6001 5.72533 40.7708 4.63001 39.8924 3.4717C38.9826 4.7035 38.1742 5.79881 37.3658 6.90113C38.7726 7.83547 38.9231 8.50386 38.0867 9.92112C37.2574 11.3244 36.407 12.7207 35.5741 14.1239C35.0737 14.9673 34.5838 15.8176 34.0834 16.668C35.7876 17.4974 36.0046 18.1552 35.1752 19.828C34.2024 21.7841 33.219 23.7333 32.2427 25.6895C32.1097 25.9589 31.9907 26.2389 31.8333 26.5818H47.8781H47.8711Z" fill="var(--fill-0, #2A2D2F)"/>
</g>
</svg>
