<svg preserveAspectRatio="none" width="100%" height="100%" overflow="visible" style="display: block;" viewBox="0 0 47 47" fill="none" xmlns="http://www.w3.org/2000/svg">
<g id="Manufacturing &#38; Industrial">
<path id="Vector" d="M15.6026 24.1735C17.5096 22.5848 19.2356 21.1335 20.9772 19.7009C21.7169 19.0923 22.4597 18.4806 23.2494 17.9344C25.3031 16.508 28.3243 18.3932 28.2775 20.812C28.2338 22.9438 28.2744 25.0755 28.2775 27.2103C28.2775 28.5056 28.2775 29.8009 28.2775 31.1554H31.3143C31.3892 30.2909 31.4704 29.4419 31.5391 28.5961C32.0665 22.0137 32.5909 15.4344 33.1183 8.85192C33.2494 7.19772 33.6396 6.84191 35.3125 6.84191C36.9261 6.84191 38.5366 6.84192 40.1502 6.84504C41.3456 6.84816 41.8762 7.33193 41.9698 8.4961C42.5535 15.8557 43.1434 23.2122 43.7114 30.5718C43.7457 30.9994 43.8831 31.2022 44.2951 31.3396C46.0148 31.9139 46.8201 33.0468 46.8201 34.8321C46.8201 38.2123 46.8201 41.5925 46.8201 44.9757C46.8201 46.2648 46.2614 46.8172 44.9692 46.8172C30.6152 46.8172 16.258 46.8172 1.90402 46.8172C0.549458 46.8172 0.012642 46.2866 0.0095209 44.9445C0.0095209 39.4576 0.0188751 33.9707 0.000148397 28.4838C-0.00297272 27.2447 0.44959 26.3052 1.40465 25.5156C4.22926 23.1778 7.01019 20.7902 9.82232 18.44C11.592 16.9637 13.5989 17.1073 14.9285 18.8988C15.3436 19.4575 15.5027 20.2752 15.5839 20.9962C15.6931 21.9669 15.612 22.9594 15.612 24.1766L15.6026 24.1735ZM24.3667 43.8241H43.8768C43.8768 43.487 43.8768 43.2061 43.8768 42.9252C43.8768 40.3502 43.8768 37.7784 43.8768 35.2035C43.8768 34.1736 43.8581 34.1486 42.8344 34.1486C37.6877 34.1486 32.5378 34.1486 27.3911 34.1486C25.8898 34.1486 25.3655 33.6336 25.3624 32.1479C25.3561 28.5867 25.3624 25.0256 25.3405 21.4644C25.3405 21.1335 25.1533 20.8058 25.0534 20.475C24.7381 20.6123 24.3699 20.6872 24.117 20.8994C21.2331 23.284 18.3648 25.6872 15.4965 28.0936C14.9097 28.5836 14.3042 28.9519 13.5146 28.5774C12.7218 28.1997 12.65 27.4975 12.6563 26.7328C12.675 24.9382 12.6781 23.1435 12.6501 21.352C12.6469 21.0555 12.4534 20.7621 12.3473 20.4656C12.0758 20.5811 11.7574 20.6435 11.5389 20.8245C8.84853 23.0749 6.16123 25.3314 3.50828 27.6286C3.20553 27.8907 2.96208 28.3995 2.95896 28.799C2.92151 33.5556 2.93399 38.3153 2.93711 43.0719C2.93711 43.3216 2.96208 43.5712 2.97769 43.8178H5.87097C5.87097 42.5631 5.8023 41.3677 5.88345 40.1786C6.16747 36.0556 10.4684 33.746 13.9672 35.9276C14.9191 36.5238 15.381 36.4645 16.2893 35.9026C19.8161 33.7116 24.2481 36.2085 24.3605 40.369C24.3917 41.5051 24.3636 42.6443 24.3636 43.8241H24.3667ZM40.8213 31.1742C40.7401 30.1848 40.6652 29.2828 40.5934 28.3776C40.1658 22.9625 39.7476 17.5442 39.3106 12.1291C39.2482 11.3613 39.3824 10.2658 38.9486 9.92558C38.4398 9.52608 37.413 9.80386 36.6109 9.7508C36.0522 9.71335 35.9273 9.97239 35.8868 10.4843C35.4561 16.0586 34.9973 21.6298 34.5572 27.201C34.4542 28.5118 34.3793 29.8227 34.2856 31.1773H40.8181L40.8213 31.1742ZM13.6488 43.8334C13.6488 42.7941 13.6519 41.786 13.6488 40.781C13.6488 40.5219 13.6363 40.2597 13.5895 40.0069C13.3585 38.8147 12.4284 38.0562 11.2206 38.0562C10.0033 38.0562 8.95151 38.8521 8.83291 40.0756C8.71431 41.3022 8.80796 42.5506 8.80796 43.8365H13.6519L13.6488 43.8334ZM21.4235 43.849C21.4235 42.5662 21.4859 41.3709 21.4048 40.1848C21.3236 39.0113 20.3717 38.1311 19.2793 38.0531C17.9934 37.9595 16.8386 38.6617 16.6857 39.8946C16.5265 41.1867 16.6513 42.5101 16.6513 43.8459H21.4235V43.849Z" fill="var(--fill-0, #2A2D2F)"/>
<path id="Vector_2" d="M18.652 6.83743C15.6058 6.6845 12.4503 5.88237 9.71623 3.82555C9.12321 3.37923 8.59262 2.8424 8.09324 2.29308C7.62507 1.78122 7.73744 0.994698 8.27115 0.464108C8.82983 -0.0914514 9.47279 -0.160115 10.0939 0.314295C10.6682 0.754373 11.18 1.28496 11.7793 1.68759C14.9503 3.81931 18.4491 4.21882 22.1476 3.64141C24.888 3.21382 27.4629 2.25563 30.0191 1.24751C31.7638 0.560866 33.5772 0.308053 35.4249 0.24563C36.3799 0.214419 37.026 0.826161 37.0416 1.67198C37.0572 2.53029 36.4611 3.14827 35.4936 3.13579C32.8656 3.1077 30.5497 4.19073 28.1808 5.10833C25.2188 6.25691 22.1383 6.77813 18.6551 6.84056L18.652 6.83743Z" fill="var(--fill-0, #2A2D2F)"/>
<path id="Vector_3" d="M38.5865 37.5904C38.9767 37.5904 39.3699 37.5499 39.7538 37.5998C40.4249 37.6872 40.918 38.2771 40.9399 38.945C40.9617 39.5942 40.4935 40.3152 39.8537 40.3745C38.9798 40.4556 38.0903 40.4619 37.2164 40.3776C36.5422 40.3121 36.0428 39.5474 36.0959 38.8951C36.1489 38.249 36.6795 37.6622 37.3412 37.5936C37.7532 37.5499 38.1714 37.5842 38.5865 37.5842C38.5865 37.5842 38.5865 37.5873 38.5865 37.5904Z" fill="var(--fill-0, #2A2D2F)"/>
<path id="Vector_4" d="M30.7775 37.5747C31.1395 37.5747 31.5078 37.5435 31.8667 37.5809C32.5877 37.6558 33.109 38.2332 33.1339 38.9324C33.1589 39.6159 32.6689 40.3181 31.9791 40.3806C31.1583 40.4586 30.3187 40.4586 29.4947 40.3868C28.7987 40.3244 28.2743 39.6315 28.2868 38.9729C28.2993 38.2676 28.8736 37.6402 29.6071 37.5747C29.9941 37.5403 30.3842 37.5684 30.7744 37.5684C30.7744 37.5684 30.7744 37.5684 30.7744 37.5716L30.7775 37.5747Z" fill="var(--fill-0, #2A2D2F)"/>
</g>
</svg>
