<svg preserveAspectRatio="none" width="100%" height="100%" overflow="visible" style="display: block;" viewBox="0 0 43 43" fill="none" xmlns="http://www.w3.org/2000/svg">
<path id="Mining" d="M23.8223 13.5505C22.5697 12.508 21.5835 11.578 20.4908 10.8021C17.5916 8.74073 14.648 6.74455 11.7163 4.72765C10.8723 4.14715 10.6976 3.386 11.2513 2.52119C12.2404 0.975188 13.6974 0.214034 15.4861 0.045218C17.9144 -0.182832 20.165 0.477624 22.3594 1.44313C25.306 2.74331 27.9564 4.50848 30.4558 6.56093C30.9385 6.13148 31.4005 5.73166 31.8476 5.31406C33.2543 3.99611 36.0616 3.88356 37.6667 5.80274C39.0822 7.49386 39.0023 9.84248 37.3646 11.5543C37.0596 11.8712 36.6983 12.1319 36.4674 12.3273C37.8118 14.3561 39.1415 16.1657 40.2668 18.0967C41.9459 20.9725 43.2222 24.0082 42.9675 27.4556C42.8343 29.2534 42.0703 30.7164 40.5451 31.7264C39.6242 32.3365 38.8157 32.1499 38.2116 31.2407C36.5088 28.6788 34.8445 26.0903 33.0677 23.5817C32.0342 22.1216 30.8052 20.8007 29.6118 19.3584C29.3275 19.6279 29.1143 19.8204 28.91 20.0248C21.9152 27.0203 14.9234 34.0187 7.92573 41.0113C7.49041 41.4466 7.04325 41.882 6.54574 42.2315C5.05321 43.2829 2.99506 43.2444 1.65061 42.1841C0.199538 41.0409 -0.410503 39.1217 0.29134 37.4158C0.590438 36.6902 1.11164 36.006 1.67134 35.4433C8.66608 28.4123 15.6845 21.4049 22.7059 14.4005C22.9991 14.1073 23.3722 13.8911 23.8283 13.5505H23.8223ZM14.6184 3.04837C24.9536 9.67366 33.349 18.0523 39.8048 28.4952C40.4 27.3342 40.2846 26.2236 40.0921 25.1426C39.6153 22.4533 38.3715 20.0633 36.879 17.8331C33.3964 12.6324 29.0136 8.32313 23.5884 5.16005C21.2637 3.80656 18.8058 2.69 16.0043 2.79959C15.5394 2.81736 15.0804 2.96248 14.6184 3.05133V3.04837ZM25.6791 15.3956C25.4896 15.5645 25.3386 15.6859 25.2023 15.8221C18.3172 22.708 11.432 29.591 4.54978 36.4829C4.02858 37.0041 3.50738 37.5313 3.05725 38.1118C2.63674 38.6567 2.7315 39.4297 3.22309 39.8473C3.74133 40.2857 4.3336 40.3597 4.92884 39.9836C5.13317 39.8532 5.31381 39.6755 5.48557 39.5038C12.6876 32.3069 19.8867 25.107 27.0828 17.9072C27.2664 17.7235 27.4352 17.5221 27.6158 17.3237C26.9466 16.6603 26.3395 16.0561 25.6761 15.3956H25.6791ZM34.575 10.3874C35.1999 9.75067 36.1149 9.23237 35.7833 8.16024C35.6589 7.76041 35.1584 7.30431 34.7438 7.20065C33.6955 6.93114 33.2335 7.85815 32.6383 8.4031C33.2898 9.07244 33.8998 9.69736 34.575 10.3874Z" fill="var(--fill-0, #2A2D2F)"/>
</svg>
