<svg preserveAspectRatio="none" width="100%" height="100%" overflow="visible" style="display: block;" viewBox="0 0 50 46" fill="none" xmlns="http://www.w3.org/2000/svg">
<path id="Public Sector &#38; Government" d="M42.7107 35.74C44.9328 36.2089 45.8671 37.3497 45.8916 39.5928C45.8986 40.2927 45.9126 40.9926 45.8916 41.6925C45.8741 42.1719 46.0421 42.4028 46.5425 42.3679C46.833 42.3469 47.1269 42.3574 47.4174 42.3748C48.5057 42.4448 49.1741 43.1132 49.1251 44.0686C49.0691 45.0939 48.4637 45.6328 47.3299 45.6328C35.4669 45.6328 23.6039 45.6328 11.7408 45.6363C8.4479 45.6363 5.15146 45.5908 1.85851 45.6573C0.521735 45.6853 0.0143152 44.8244 0.000317501 43.9531C-0.0171796 43.0187 0.689704 42.4168 1.82351 42.3748C2.25394 42.3609 2.68437 42.3748 3.23727 42.3748C3.23727 41.535 3.23727 40.7861 3.23727 40.0407C3.23727 37.3392 3.90566 36.4258 6.52322 35.684C6.52322 35.397 6.52322 35.0786 6.52322 34.7636C6.52322 29.9554 6.50923 25.1437 6.52673 20.3356C6.52673 19.7302 6.42524 19.4362 5.72886 19.2962C4.33259 19.0128 3.45074 18.0469 3.33876 16.6367C3.19528 14.81 3.20928 12.9693 3.21278 11.1356C3.21278 10.4462 3.6537 9.96679 4.2766 9.65534C10.3761 6.62135 16.4826 3.60136 22.561 0.525372C23.9328 -0.167512 25.1611 -0.181513 26.5364 0.521869C32.3209 3.47187 38.1369 6.3589 43.9424 9.26691C44.3064 9.44888 44.7753 9.52586 45.0203 9.80581C45.3982 10.2327 45.8426 10.7787 45.8811 11.3001C45.9861 12.8363 45.9231 14.3865 45.8881 15.9298C45.8426 17.809 44.9503 18.8868 43.1586 19.3907C42.9381 19.4537 42.6372 19.7721 42.6337 19.9751C42.6127 25.1612 42.6232 30.3509 42.6337 35.537C42.6337 35.5895 42.6722 35.6455 42.7107 35.747V35.74ZM42.6057 12.9308H6.58622V16.0733C6.90466 16.0908 7.16012 16.1153 7.41557 16.1153C16.2796 16.1188 25.1436 16.1223 34.0076 16.1223C36.6042 16.1223 39.1972 16.1083 41.7938 16.1328C42.3712 16.1363 42.6547 15.9998 42.6162 15.3559C42.5672 14.5755 42.6057 13.7882 42.6057 12.9308ZM42.5322 42.3119V39.1834H6.59322V42.3119H42.5322ZM36.9506 9.50487C36.7582 9.35089 36.6987 9.2809 36.6217 9.24241C32.7478 7.30374 28.8775 5.35806 24.9826 3.45788C24.6957 3.3179 24.1953 3.42289 23.8733 3.57686C20.9198 5.01862 17.9838 6.49537 15.0478 7.96513C14.1239 8.42705 13.2071 8.89597 12.2833 9.36139C12.2973 9.40688 12.3148 9.45587 12.3288 9.50136H36.9471L36.9506 9.50487ZM19.6425 35.7785C19.6425 35.376 19.6425 35.0646 19.6425 34.7496C19.6425 30.4069 19.639 26.0641 19.646 21.7178C19.6495 19.3732 19.66 19.4012 17.3469 19.3662C16.6085 19.3557 16.3356 19.5132 16.3426 20.3216C16.3811 25.2172 16.3601 30.1164 16.3671 35.0121C16.3671 35.2605 16.4126 35.509 16.4371 35.7785H19.646H19.6425ZM32.7198 35.7785C32.7373 35.3795 32.7653 35.0646 32.7653 34.7531C32.7653 30.4104 32.7688 26.0711 32.7618 21.7283C32.7583 19.3697 32.7478 19.4047 30.3787 19.3732C29.6194 19.3627 29.4654 19.6357 29.4689 20.3285C29.4934 25.2242 29.4829 30.1164 29.4864 35.0121C29.4864 35.2605 29.5284 35.5125 29.5529 35.7785H32.7163H32.7198ZM13.0776 35.768C13.0776 35.362 13.0776 35.0471 13.0776 34.7321C13.0776 30.3649 13.0776 26.0011 13.0706 21.6338C13.0671 19.3697 13.0601 19.4047 10.7715 19.3662C10.0051 19.3522 9.77768 19.5692 9.78468 20.3425C9.81967 25.2032 9.80217 30.0639 9.80567 34.9246C9.80567 35.201 9.84767 35.474 9.87216 35.768H13.0776ZM26.1969 35.768C26.1969 35.348 26.1969 35.0051 26.1969 34.6656C26.1969 30.3579 26.1969 26.0501 26.2004 21.7423C26.2039 19.3662 26.2144 19.3977 23.8348 19.3732C23.0789 19.3662 22.9145 19.6287 22.918 20.3285C22.9425 25.1612 22.925 29.9904 22.9285 34.8231C22.9285 35.1311 22.9705 35.4355 22.995 35.7715H26.2004L26.1969 35.768ZM39.3232 35.768C39.3232 35.3655 39.3232 35.0506 39.3232 34.7356C39.3232 30.3684 39.3232 26.0046 39.3162 21.6373C39.3127 19.3697 39.3057 19.4012 37.0206 19.3662C36.2612 19.3557 36.0233 19.5552 36.0268 20.3356C36.0618 25.2242 36.0443 30.1164 36.0478 35.0051C36.0478 35.2535 36.0968 35.4985 36.1248 35.7645H39.3197L39.3232 35.768Z" fill="var(--fill-0, #2A2D2F)"/>
</svg>
