<svg preserveAspectRatio="none" width="100%" height="100%" overflow="visible" style="display: block;" viewBox="0 0 45 47" fill="none" xmlns="http://www.w3.org/2000/svg">
<g id="Group">
<path id="Vector" d="M6.66843 19.091C6.3969 19.5904 6.2502 19.8619 6.10039 20.1303C4.32135 23.3045 2.47989 26.4412 0.782003 29.6591C-1.32475 33.651 1.02857 38.8227 5.4075 39.8995C6.37817 40.1398 7.41438 40.1554 8.4225 40.171C10.111 40.1991 11.8027 40.1804 13.4912 40.1117C14.2247 40.0805 14.724 39.4407 14.7334 38.754C14.7428 38.0393 14.2059 37.4057 13.4725 37.2965C13.1916 37.2559 12.9013 37.2559 12.6173 37.2559C10.9506 37.2497 9.28705 37.2653 7.62349 37.2434C6.65907 37.2309 5.69776 37.1467 4.88627 36.5224C2.82321 34.9369 2.38938 32.7147 3.70337 30.3707C5.38253 27.3807 7.07106 24.3969 8.75958 21.41C8.86258 21.2258 8.99367 21.0542 9.19342 20.7545C9.33075 21.204 9.42438 21.4974 9.50553 21.7939C9.80204 22.8707 10.0705 23.9537 10.3888 25.0242C10.6572 25.9169 11.4063 26.3819 12.146 26.179C12.9419 25.9606 13.4288 25.2302 13.2072 24.3532C12.5361 21.6846 11.8339 19.0254 11.0879 16.3756C10.8258 15.4518 10.0236 15.1116 9.10915 15.3675C7.73273 15.7514 6.35632 16.129 4.97678 16.5036C3.77515 16.8313 2.56416 17.1403 1.36565 17.4805C0.703973 17.6678 0.285744 18.1359 0.232685 18.8226C0.182747 19.4811 0.513587 20.0086 1.12845 20.2333C1.46553 20.355 1.89936 20.3457 2.25517 20.2583C3.65967 19.9181 5.05169 19.5248 6.66531 19.091H6.66843ZM25.9226 37.259C25.8883 37.1935 25.854 37.1279 25.8227 37.0593C26.0131 36.8595 26.2004 36.6566 26.397 36.46C27.2241 35.6298 28.0668 34.8183 28.8752 33.9694C29.5494 33.2609 29.5431 32.4369 28.9189 31.8189C28.354 31.2602 27.4925 31.2727 26.8277 31.9219C24.8958 33.8133 22.9763 35.7234 21.0693 37.6429C20.3951 38.3233 20.4326 39.166 21.1161 39.8558C21.8121 40.558 22.5268 41.2416 23.2291 41.9376C24.4089 43.1111 25.5668 44.3096 26.7653 45.4644C27.4925 46.1667 28.3165 46.1885 28.9189 45.6049C29.5618 44.9838 29.5306 44.1567 28.8065 43.3983C28.1605 42.721 27.4832 42.0718 26.8246 41.407C26.4875 41.0668 26.1598 40.7141 25.648 40.1835C26.1942 40.1835 26.4907 40.1835 26.7872 40.1835C30.0394 40.1835 33.2916 40.2178 36.5438 40.1773C41.3129 40.1211 44.5963 36.5755 44.0345 31.9219C43.688 29.0474 41.7935 26.8282 40.286 24.4812C39.9052 23.8881 39.0251 23.9693 38.4633 24.4343C37.8515 24.94 37.7485 25.6516 38.2136 26.4756C38.9533 27.7895 39.6711 29.1191 40.4764 30.3894C42.4708 33.5355 40.1299 37.3839 36.5937 37.2653C34.359 37.1904 32.118 37.2528 29.8802 37.2528C28.56 37.2528 27.2366 37.2528 25.9164 37.2528L25.9226 37.259ZM34.0812 13.5697C33.7004 12.9237 33.4476 12.5023 33.2042 12.0778C31.6311 9.325 30.0893 6.55345 28.4819 3.81935C25.5637 -1.14011 18.9656 -1.28368 15.8508 3.53845C15.1048 4.69327 14.4307 5.90114 13.7752 7.11213C13.5911 7.45233 13.4943 7.9049 13.538 8.28567C13.6129 8.9099 14.0748 9.29067 14.6835 9.41864C15.3982 9.56845 15.9007 9.15959 16.244 8.61339C16.9088 7.55845 17.4425 6.41612 18.1635 5.40176C18.6879 4.66205 19.3121 3.8412 20.0892 3.46042C22.0836 2.48976 24.6274 2.80187 26.1005 5.511C27.7391 8.52288 29.4838 11.4817 31.1786 14.4655C31.2722 14.6278 31.3253 14.8151 31.4376 15.0928C29.9863 14.7027 28.6692 14.3063 27.3302 14.0098C26.859 13.9037 26.2815 13.9193 25.8415 14.1003C25.2765 14.3313 25.0425 14.9118 25.1548 15.5392C25.2859 16.2695 25.8071 16.6191 26.4844 16.8001C29.0437 17.4899 31.5999 18.1859 34.1592 18.8756C35.0269 19.1097 35.7947 18.6415 36.0444 17.7208C36.6905 15.3144 37.3272 12.9018 37.9608 10.4923C38.3228 9.10341 38.017 8.28255 37.0713 8.06095C36.085 7.82999 35.492 8.34497 35.1112 9.76196C34.7897 10.9573 34.4651 12.1527 34.0812 13.576V13.5697Z" fill="var(--fill-0, white)"/>
<path id="Vector_2" d="M6.66843 19.0939C5.05481 19.5277 3.66279 19.921 2.25829 20.2612C1.90248 20.3486 1.46864 20.3579 1.13156 20.2362C0.516703 20.0115 0.185866 19.484 0.235804 18.8254C0.288863 18.1419 0.707092 17.6738 1.36877 17.4834C2.56728 17.1432 3.77515 16.8342 4.9799 16.5065C6.35944 16.1319 7.73585 15.7543 9.11226 15.3704C10.0268 15.1144 10.8289 15.4546 11.0911 16.3785C11.837 19.0252 12.5393 21.6875 13.2103 24.3561C13.4319 25.2362 12.945 25.9634 12.1491 26.1819C11.4094 26.3848 10.6603 25.9197 10.3919 25.0271C10.0704 23.9566 9.80203 22.8735 9.50865 21.7968C9.4275 21.5002 9.33074 21.2069 9.19654 20.7574C8.99678 21.057 8.8657 21.2256 8.7627 21.4129C7.07418 24.3998 5.38253 27.3836 3.70649 30.3736C2.38937 32.7175 2.82633 34.9398 4.88939 36.5253C5.70088 37.1495 6.65907 37.2338 7.62661 37.2463C9.29017 37.2681 10.9568 37.2557 12.6204 37.2588C12.9075 37.2588 13.1947 37.2588 13.4756 37.2993C14.2091 37.4086 14.7459 38.0391 14.7365 38.7569C14.7272 39.4436 14.2278 40.0834 13.4943 40.1146C11.8058 40.1833 10.1141 40.202 8.42562 40.1739C7.4175 40.1583 6.38128 40.1396 5.41062 39.9024C1.03169 38.8256 -1.32164 33.6508 0.785119 29.662C2.48301 26.4472 4.32759 23.3074 6.10351 20.1332C6.25332 19.8648 6.40001 19.5932 6.67155 19.0939H6.66843Z" fill="var(--fill-0, #2A2D2F)"/>
<path id="Vector_3" d="M25.9226 37.2545C27.2428 37.2545 28.5662 37.2545 29.8864 37.2545C32.1243 37.2545 34.3652 37.192 36.5999 37.267C40.1362 37.3856 42.477 33.5372 40.4826 30.3911C39.6774 29.1208 38.9595 27.7912 38.2198 26.4772C37.7548 25.6533 37.8578 24.9448 38.4695 24.436C39.0313 23.971 39.9115 23.893 40.2922 24.4828C41.7997 26.8299 43.6942 29.0459 44.0407 31.9236C44.6025 36.5741 41.3191 40.1228 36.55 40.179C33.2978 40.2164 30.0456 40.1852 26.7934 40.1852C26.4969 40.1852 26.2004 40.1852 25.6542 40.1852C26.1629 40.7158 26.4906 41.0654 26.8308 41.4087C27.4894 42.0735 28.1667 42.7227 28.8128 43.3999C29.5369 44.1584 29.5649 44.9855 28.9251 45.6066C28.3227 46.1902 27.4956 46.1653 26.7715 45.4661C25.573 44.3113 24.4151 43.1128 23.2353 41.9393C22.5362 41.2433 21.8183 40.5597 21.1223 39.8575C20.4388 39.1677 20.4013 38.3219 21.0755 37.6446C22.9794 35.7251 24.8989 33.8181 26.834 31.9236C27.4956 31.2744 28.3602 31.2619 28.9251 31.8206C29.5493 32.4386 29.5556 33.2626 28.8814 33.9711C28.0762 34.82 27.2303 35.6315 26.4033 36.4617C26.2066 36.6583 26.0194 36.8612 25.829 37.061C25.8633 37.1265 25.8976 37.192 25.9288 37.2607L25.9226 37.2545Z" fill="var(--fill-0, #2A2D2F)"/>
<path id="Vector_4" d="M34.0812 13.5657C34.4651 12.1424 34.7897 10.947 35.1112 9.75165C35.492 8.33778 36.0881 7.81967 37.0713 8.05064C38.0139 8.27223 38.3228 9.09621 37.9608 10.482C37.3303 12.8946 36.6905 15.3041 36.0444 17.7105C35.7979 18.6312 35.0301 19.0994 34.1593 18.8653C31.6 18.1787 29.0438 17.4795 26.4844 16.7898C25.8072 16.6087 25.2859 16.2561 25.1548 15.5288C25.0425 14.9015 25.2766 14.321 25.8415 14.09C26.2816 13.909 26.8559 13.8965 27.3303 13.9995C28.6692 14.296 29.9863 14.6924 31.4377 15.0825C31.3253 14.8047 31.2722 14.6175 31.1786 14.4552C29.4838 11.4714 27.7391 8.51568 26.1005 5.50068C24.6274 2.79467 22.0805 2.47944 20.0893 3.45011C19.3121 3.82776 18.6879 4.65174 18.1635 5.39144C17.4426 6.40581 16.9057 7.54501 16.244 8.60307C15.9007 9.14927 15.3982 9.55814 14.6835 9.40832C14.078 9.28036 13.6129 8.89958 13.538 8.27536C13.4943 7.89458 13.5911 7.44202 13.7752 7.10182C14.4307 5.89082 15.1017 4.68607 15.8508 3.52813C18.9688 -1.29399 25.5637 -1.15042 28.482 3.80903C30.0893 6.54001 31.6312 9.31469 33.2042 12.0675C33.4477 12.4951 33.7036 12.9165 34.0812 13.5594V13.5657Z" fill="var(--fill-0, #2A2D2F)"/>
</g>
</svg>
