<svg preserveAspectRatio="none" width="100%" height="100%" overflow="visible" style="display: block;" viewBox="0 0 47 47" fill="none" xmlns="http://www.w3.org/2000/svg">
<path id="Retail &#38; Hardware Distribution" d="M23.4848 46.9748C16.966 46.9748 10.4472 46.9341 3.93153 46.9998C1.94115 47.0186 -0.0179404 45.6385 0.00396627 43.0504C0.0853339 33.5084 0.107247 23.9665 0.000843234 14.4246C-0.0429701 10.4689 1.62193 7.5678 4.67948 5.31767C8.37232 2.59811 12.594 1.17105 17.0787 0.501332C22.2799 -0.274791 27.4781 -0.184035 32.6105 1.01457C36.6319 1.95343 40.4155 3.47438 43.5357 6.29721C45.7608 8.3095 47.0094 10.7411 46.9938 13.8488C46.9375 23.6786 46.975 33.5053 46.9719 43.3351C46.9719 45.4914 45.5135 46.9654 43.351 46.9685C36.7289 46.9779 30.1069 46.9685 23.4848 46.9716V46.9748ZM36.7008 44.0299C38.8789 44.0299 40.935 44.0299 42.9911 44.0299C44.0239 44.0299 44.0301 44.0268 44.0333 42.9784C44.0333 33.8276 44.0333 24.6769 44.0333 15.5293C44.0333 15.2789 44.0051 15.0286 43.9926 14.7657H2.98328C2.98328 15.1193 2.98328 15.426 2.98328 15.7327C2.98328 18.2864 2.98328 20.8433 2.98328 23.3969C2.98328 29.9157 2.98328 36.4314 2.98328 42.9502C2.98328 44.0299 2.98954 44.033 4.08487 44.033C5.88435 44.033 7.68382 44.033 9.48017 44.0299C9.73053 44.0299 9.9809 44.0017 10.3064 43.983C10.3064 43.6074 10.3064 43.3007 10.3064 42.9909C10.3064 40.5937 10.297 38.1933 10.3064 35.7961C10.3158 33.4239 11.4486 32.3004 13.802 32.2973C14.5719 32.2973 15.3418 32.2973 16.168 32.2973C16.168 31.856 16.168 31.5462 16.168 31.2364C16.168 28.786 16.1554 26.3356 16.1742 23.8851C16.193 21.7039 17.3541 20.5647 19.5291 20.5616C22.161 20.5585 24.7961 20.5616 27.428 20.5616C29.7032 20.5616 30.8361 21.6851 30.8454 23.9728C30.8548 26.4232 30.8454 28.8736 30.8454 31.324C30.8454 31.6276 30.8705 31.928 30.8861 32.3004C31.7999 32.3004 32.6293 32.3004 33.4586 32.3004C35.5147 32.3098 36.6914 33.4928 36.7008 35.5583C36.7039 36.6536 36.7008 37.7489 36.7008 38.8443C36.7008 40.5342 36.7008 42.2242 36.7008 44.033V44.0299ZM3.08342 11.7113H43.9675C43.3729 10.8037 42.9692 9.97753 42.3809 9.3172C39.8866 6.5288 36.5756 5.14868 33.083 4.15975C29.3401 3.09884 25.494 2.85787 21.6227 3.01121C18.1928 3.14578 14.8348 3.68719 11.6176 4.91709C8.97006 5.93106 6.44766 7.17661 4.57933 9.39857C4.02853 10.0526 3.64048 10.8444 3.08968 11.7113H3.08342ZM27.8286 32.2566V23.5565H19.1629V32.2566H27.8286ZM13.2951 35.2704V43.9736H21.9044V35.2704H13.2951ZM25.0652 43.9579H33.7121V35.3048H25.0652V43.9579Z" fill="var(--fill-0, #2A2D2F)"/>
</svg>
