<svg preserveAspectRatio="none" width="100%" height="100%" overflow="visible" style="display: block;" viewBox="0 0 40 49" fill="none" xmlns="http://www.w3.org/2000/svg">
<g id="Security &#38; Perimeter Protection">
<path id="Vector" d="M0.0133027 16.7837C0.0133027 14.5966 0.0490929 12.4055 0.00137326 10.2183C-0.0423698 8.08683 0.959741 6.66717 2.88841 5.93945C8.0143 4.00282 13.1481 2.07415 18.3178 0.260807C19.2324 -0.0613008 20.4492 -0.0970905 21.3559 0.221041C26.5892 2.05029 31.7747 4.01078 36.9642 5.96331C38.6463 6.59559 39.7916 7.78063 39.7638 9.67351C39.6922 15.2368 40.1058 20.8797 39.3104 26.3436C37.7317 37.164 31.7747 44.9224 21.2963 48.7718C20.4572 49.082 19.3159 49.0701 18.4649 48.7718C7.81149 45.0576 0.208161 34.448 0.0292126 23.1543C-0.00260046 21.0348 0.0252321 18.9112 0.0252321 16.7877C0.0212555 16.7877 0.0172793 16.7877 0.0133027 16.7877V16.7837ZM36.1053 17.2291C36.1053 15.2408 36.0377 13.2485 36.1291 11.2642C36.1848 10.0791 35.7673 9.47865 34.6538 9.07304C30.188 7.45455 25.762 5.72073 21.2843 4.13008C20.493 3.84773 19.4432 3.80399 18.6598 4.08236C14.1184 5.68892 9.62484 7.43864 5.1034 9.10883C4.12912 9.46672 3.62409 9.94392 3.66386 11.1091C3.81895 15.7419 3.51275 20.4224 4.02971 25.0114C5.05966 34.1497 9.74016 40.9458 18.2502 44.7832C19.1887 45.2087 20.6282 45.173 21.5945 44.7753C27.3766 42.3814 31.2657 38.0349 33.8585 32.4119C36.0933 27.5604 36.1848 22.4147 36.1013 17.2331L36.1053 17.2291Z" fill="var(--fill-0, #2A2D2F)"/>
<path id="Vector_2" d="M17.2083 27.6797C20.4293 24.4348 23.3601 21.4762 26.2949 18.5255C26.7164 18.104 27.1021 17.4439 27.5913 17.3445C28.3945 17.1814 29.4563 17.1257 30.0449 17.5433C30.4107 17.8018 30.3471 19.13 30.0369 19.7662C29.6512 20.5616 28.828 21.1461 28.1758 21.8023C25.2331 24.7569 22.2904 27.7155 19.3278 30.6503C17.4151 32.5471 16.8981 32.5233 14.9615 30.5747C13.3271 28.9324 11.6927 27.29 10.0622 25.6437C9.17943 24.7569 8.68235 23.727 9.66458 22.6891C10.6945 21.6034 11.8279 21.9176 12.7743 22.9117C14.2298 24.4348 15.6415 25.9976 17.2043 27.6837L17.2083 27.6797Z" fill="var(--fill-0, #2A2D2F)"/>
</g>
</svg>
