<svg preserveAspectRatio="none" width="100%" height="100%" overflow="visible" style="display: block;" viewBox="0 0 35 52" fill="none" xmlns="http://www.w3.org/2000/svg">
<g id="Transport &#38; Rail">
<path id="Vector" d="M11.3858 8.4933V3.28268C10.287 3.28268 9.21964 3.28618 8.14882 3.28268C6.91353 3.27568 6.17865 2.68427 6.15766 1.69044C6.14016 0.696608 6.95202 0.00722437 8.18382 0.00722437C14.2798 0.00372495 20.3723 0.00722821 26.4682 0.000229386C27.2591 0.000229386 27.91 0.227692 28.2949 0.95207C28.6169 1.55747 28.5714 2.20486 28.0885 2.64929C27.7385 2.97123 27.2031 3.21968 26.7342 3.25468C25.6109 3.34216 24.4771 3.28268 23.2278 3.28268C23.2278 4.9449 23.2103 6.51264 23.2593 8.07338C23.2628 8.21335 23.7002 8.42681 23.9522 8.4583C25.3344 8.61228 26.7727 8.5283 28.0955 8.88174C31.2869 9.7391 33.4321 12.6156 33.4531 15.9471C33.4951 22.8024 33.4811 29.6542 33.4636 36.5096C33.4601 38.4553 32.3193 39.8025 30.4401 40.2435C23.3188 41.9057 16.1345 42.0947 8.90819 41.0938C7.32296 40.8734 5.74823 40.5794 4.18749 40.226C2.21732 39.778 1.19549 38.4133 1.19199 36.3801C1.18849 29.7312 1.17799 23.0788 1.19199 16.43C1.19899 11.8772 4.19449 8.73827 8.73672 8.50031C9.57658 8.45831 10.4199 8.4933 11.3858 8.4933ZM25.5934 37.8499C27.0701 37.5769 28.4104 37.36 29.7262 37.0485C29.9397 36.9995 30.1776 36.5236 30.1846 36.2366C30.2266 34.5464 30.1916 32.8527 30.2056 31.1625C30.2091 30.6481 30.0341 30.4206 29.4952 30.4381C28.6519 30.4661 27.805 30.4556 26.9582 30.4381C25.8349 30.4171 25.191 29.8222 25.1875 28.8354C25.1875 27.866 25.8628 27.2082 26.9337 27.1837C27.749 27.1627 28.5679 27.1837 29.3833 27.1837C29.7962 27.1837 30.2966 27.2292 30.1916 26.5958C30.0971 26.0254 30.643 25.1645 29.5512 24.9825C28.0605 24.7376 26.5697 24.4576 25.072 24.2547C19.7599 23.5373 14.4408 23.5898 9.13216 24.2966C7.58192 24.5031 6.04568 24.8146 4.44994 25.091C4.44994 25.5634 4.48494 25.9134 4.44294 26.2563C4.35546 26.9947 4.66341 27.2362 5.38079 27.1907C6.16466 27.1382 6.95552 27.1592 7.74289 27.1872C8.80671 27.2222 9.4786 27.894 9.4646 28.8669C9.4506 29.8187 8.81371 30.4171 7.75339 30.4451C6.91003 30.4661 6.06317 30.4731 5.21631 30.4451C4.65641 30.4241 4.43595 30.6201 4.44294 31.1975C4.46744 32.8597 4.43595 34.5219 4.46744 36.1842C4.47444 36.4571 4.65291 36.9225 4.83488 36.9715C6.19265 37.318 7.57142 37.5804 9.07617 37.8989C9.07617 36.7336 9.03417 35.8027 9.08666 34.8754C9.17765 33.2062 10.2835 31.9604 11.9457 31.9114C15.4416 31.8099 18.941 31.7609 22.4334 31.8554C24.4876 31.9114 25.5479 33.2167 25.5864 35.2918C25.6004 36.0967 25.5864 36.905 25.5864 37.8569L25.5934 37.8499ZM4.54093 21.6266C4.79638 21.6266 4.99935 21.6441 5.19532 21.6266C8.46027 21.2697 11.7217 20.8917 14.9902 20.5558C15.5746 20.4963 15.7006 20.2268 15.6971 19.7054C15.6796 17.8962 15.6936 16.0905 15.6971 14.2813C15.6971 13.473 15.6971 12.6646 15.6971 11.8038C13.188 11.8038 10.8014 11.7548 8.42178 11.8177C6.5111 11.8702 4.7159 13.4485 4.57592 15.3522C4.42545 17.4063 4.54093 19.478 4.54093 21.6301V21.6266ZM30.0761 21.7001C30.1356 21.5006 30.1951 21.3921 30.1951 21.2872C30.1986 19.45 30.2756 17.6058 30.1741 15.7756C30.0481 13.5674 28.2809 11.9087 26.0413 11.8038C24.6451 11.7408 23.2453 11.7862 21.8455 11.7827C20.9217 11.7827 19.9978 11.7827 19.0215 11.7827C19.0005 12.1222 18.969 12.3777 18.969 12.6331C18.9655 14.9392 18.997 17.2418 18.948 19.5479C18.9305 20.3248 19.207 20.5243 19.9453 20.5698C22.0345 20.6958 24.1236 20.8777 26.2093 21.1017C27.5006 21.2417 28.7779 21.4936 30.0796 21.7001H30.0761ZM12.3376 38.3468C15.0777 38.3468 17.6917 38.4238 20.2953 38.3223C22.3494 38.2418 22.3459 38.1403 22.3319 36.0757C22.3319 35.9602 22.3774 35.8062 22.3214 35.7327C22.1465 35.5053 21.933 35.1238 21.7335 35.1203C18.7975 35.0818 15.858 35.0853 12.922 35.1168C12.7261 35.1168 12.3761 35.4073 12.3656 35.5823C12.3061 36.4431 12.3376 37.3075 12.3376 38.3503V38.3468ZM19.8789 3.28617C18.2726 3.28617 16.7609 3.27568 15.2491 3.30017C15.0777 3.30017 14.7627 3.51364 14.7592 3.62912C14.7277 5.21785 14.7382 6.80659 14.7382 8.40932H19.8754V3.28268L19.8789 3.28617Z" fill="var(--fill-0, #2A2D2F)"/>
<path id="Vector_2" d="M5.39135 41.727C6.89959 41.8775 7.58548 43.2563 6.8541 44.5616C5.97575 46.1258 5.0694 47.6795 4.17705 49.2333C3.83061 49.8352 3.48417 50.4371 3.13073 51.039C2.57782 51.9838 1.70996 52.2568 0.856108 51.7563C-0.00474739 51.2559 -0.246207 50.3391 0.268207 49.4327C1.514 47.2491 2.73879 45.0515 4.04407 42.9028C4.33802 42.4164 4.93292 42.1155 5.39135 41.727Z" fill="var(--fill-0, #2A2D2F)"/>
<path id="Vector_3" d="M29.4533 41.8881C29.6983 42.0945 30.3037 42.392 30.6011 42.8749C31.8889 44.9781 33.0927 47.1337 34.314 49.2753C34.9054 50.3147 34.7095 51.27 33.8276 51.7739C32.9772 52.2568 32.0569 51.9664 31.483 50.9726C30.1917 48.7399 28.8934 46.5073 27.6616 44.2397C27.0702 43.1514 27.8751 41.9056 29.4533 41.8881Z" fill="var(--fill-0, #2A2D2F)"/>
</g>
</svg>
